{
  "accessors": [
    {
      "bufferView": 1,
      "componentType": 5126,
      "count": 65532,
      "max": [
        11.058492660522461,
        10.604408264160156,
        25.007038116455078
      ],
      "min": [
        6.145355224609375,
        1.5856673717498779,
        2.0149269104003906
      ],
      "type": "VEC3"
    },
    {
      "bufferView": 1,
      "byteOffset": 786384,
      "componentType": 5126,
      "count": 65532,
      "max": [
        0.99996691942214966,
        0.99998617172241211,
        0.99999970197677612
      ],
      "min": [
        -0.99999094009399414,
        -0.99998182058334351,
        -0.99999815225601196
      ],
      "type": "VEC3"
    },
    {
      "bufferView": 0,
      "componentType": 5125,
      "count": 302913,
      "max": [
        65531
      ],
      "min": [
        0
      ],
      "type": "SCALAR"
    },
    {
      "bufferView": 1,
      "byteOffset": 1572768,
      "componentType": 5126,
      "count": 65532,
      "max": [
        15.158828735351562,
        16.192449569702148,
        27.398740768432617
      ],
      "min": [
        2.5228061676025391,
        3.5838589668273926,
        0.00092315673828125
      ],
      "type": "VEC3"
    },
    {
      "bufferView": 1,
      "byteOffset": 2359152,
      "componentType": 5126,
      "count": 65532,
      "max": [
        0.9999961256980896,
        0.99992167949676514,
        0.99999690055847168
      ],
      "min": [
        -0.999969482421875,
        -0.99999839067459106,
        -0.9999622106552124
      ],
      "type": "VEC3"
    },
    {
      "bufferView": 0,
      "byteOffset": 1211652,
      "componentType": 5125,
      "count": 305187,
      "max": [
        65531
      ],
      "min": [
        0
      ],
      "type": "SCALAR"
    },
    {
      "bufferView": 1,
      "byteOffset": 3145536,
      "componentType": 5126,
      "count": 65532,
      "max": [
        16.993858337402344,
        16.256376266479492,
        25.018356323242188
      ],
      "min": [
        4.3960781097412109,
        1.9174833297729492,
        9.2453336715698242
      ],
      "type": "VEC3"
    },
    {
      "bufferView": 1,
      "byteOffset": 3931920,
      "componentType": 5126,
      "count": 65532,
      "max": [
        0.99997138977050781,
        0.99999535083770752,
        0.99983304738998413
      ],
      "min": [
        -0.99998009204864502,
        -0.9999922513961792,
        -0.99998587369918823
      ],
      "type": "VEC3"
    },
    {
      "bufferView": 0,
      "byteOffset": 2432400,
      "componentType": 5125,
      "count": 299292,
      "max": [
        65531
      ],
      "min": [
        0
      ],
      "type": "SCALAR"
    },
    {
      "bufferView": 1,
      "byteOffset": 4718304,
      "componentType": 5126,
      "count": 65532,
      "max": [
        11.536311149597168,
        12.832235336303711,
        26.367515563964844
      ],
      "min": [
        6.1459369659423828,
        1.580580472946167,
        2.6705646514892578
      ],
      "type": "VEC3"
    },
    {
      "bufferView": 1,
      "byteOffset": 5504688,
      "componentType": 5126,
      "count": 65532,
      "max": [
        0.99999135732650757,
        0.99997103214263916,
        0.99997133016586304
      ],
      "min": [
        -0.9999995231628418,
        -0.99996113777160645,
        -0.99993008375167847
      ],
      "type": "VEC3"
    },
    {
      "bufferView": 0,
      "byteOffset": 3629568,
      "componentType": 5125,
      "count": 302241,
      "max": [
        65531
      ],
      "min": [
        0
      ],
      "type": "SCALAR"
    },
    {
      "bufferView": 1,
      "byteOffset": 6291072,
      "componentType": 5126,
      "count": 65532,
      "max": [
        17.681634902954102,
        17.111772537231445,
        26.421863555908203
      ],
      "min": [
        0.68777751922607422,
        2.2041831016540527,
        0.79763221740722656
      ],
      "type": "VEC3"
    },
    {
      "bufferView": 1,
      "byteOffset": 7077456,
      "componentType": 5126,
      "count": 65532,
      "max": [
        0.99998593330383301,
        0.99997866153717041,
        0.99991369247436523
      ],
      "min": [
        -0.9999995231628418,
        -0.99997627735137939,
        -0.9998050332069397
      ],
      "type": "VEC3"
    },
    {
      "bufferView": 0,
      "byteOffset": 4838532,
      "componentType": 5125,
      "count": 310554,
      "max": [
        65531
      ],
      "min": [
        0
      ],
      "type": "SCALAR"
    },
    {
      "bufferView": 1,
      "byteOffset": 7863840,
      "componentType": 5126,
      "count": 65532,
      "max": [
        17.656333923339844,
        17.111772537231445,
        25.478494644165039
      ],
      "min": [
        0,
        2.0419397354125977,
        0.94183158874511719
      ],
      "type": "VEC3"
    },
    {
      "bufferView": 1,
      "byteOffset": 8650224,
      "componentType": 5126,
      "count": 65532,
      "max": [
        0.99999392032623291,
        0.99999195337295532,
        0.9999580979347229
      ],
      "min": [
        -0.99995875358581543,
        -0.9998929500579834,
        -0.99995094537734985
      ],
      "type": "VEC3"
    },
    {
      "bufferView": 0,
      "byteOffset": 6080748,
      "componentType": 5125,
      "count": 310809,
      "max": [
        65531
      ],
      "min": [
        0
      ],
      "type": "SCALAR"
    },
    {
      "bufferView": 1,
      "byteOffset": 9436608,
      "componentType": 5126,
      "count": 65532,
      "max": [
        15.326271057128906,
        16.960630416870117,
        31.038356781005859
      ],
      "min": [
        0.38630390167236328,
        0,
        0.7975616455078125
      ],
      "type": "VEC3"
    },
    {
      "bufferView": 1,
      "byteOffset": 10222992,
      "componentType": 5126,
      "count": 65532,
      "max": [
        0.99999845027923584,
        0.99996161460876465,
        0.99993038177490234
      ],
      "min": [
        -0.99999845027923584,
        -0.99993431568145752,
        -0.99995088577270508
      ],
      "type": "VEC3"
    },
    {
      "bufferView": 0,
      "byteOffset": 7323984,
      "componentType": 5125,
      "count": 309279,
      "max": [
        65531
      ],
      "min": [
        0
      ],
      "type": "SCALAR"
    },
    {
      "bufferView": 1,
      "byteOffset": 11009376,
      "componentType": 5126,
      "count": 65532,
      "max": [
        17.567106246948242,
        16.856500625610352,
        28.583662033081055
      ],
      "min": [
        0.011181831359863281,
        0.28580856323242188,
        0.8941650390625
      ],
      "type": "VEC3"
    },
    {
      "bufferView": 1,
      "byteOffset": 11795760,
      "componentType": 5126,
      "count": 65532,
      "max": [
        0.99999105930328369,
        0.99997472763061523,
        0.99999970197677612
      ],
      "min": [
        -0.99998921155929565,
        -0.99995195865631104,
        -0.9999733567237854
      ],
      "type": "VEC3"
    },
    {
      "bufferView": 0,
      "byteOffset": 8561100,
      "componentType": 5125,
      "count": 299184,
      "max": [
        65531
      ],
      "min": [
        0
      ],
      "type": "SCALAR"
    },
    {
      "bufferView": 1,
      "byteOffset": 12582144,
      "componentType": 5126,
      "count": 65532,
      "max": [
        17.648700714111328,
        17.109207153320312,
        30.934225082397461
      ],
      "min": [
        0.032933235168457031,
        0.0012388229370117188,
        0
      ],
      "type": "VEC3"
    },
    {
      "bufferView": 1,
      "byteOffset": 13368528,
      "componentType": 5126,
      "count": 65532,
      "max": [
        0.99999445676803589,
        0.99998623132705688,
        0.99999678134918213
      ],
      "min": [
        -0.99998956918716431,
        -0.99998742341995239,
        -0.99993449449539185
      ],
      "type": "VEC3"
    },
    {
      "bufferView": 0,
      "byteOffset": 9757836,
      "componentType": 5125,
      "count": 294312,
      "max": [
        65531
      ],
      "min": [
        0
      ],
      "type": "SCALAR"
    },
    {
      "bufferView": 1,
      "byteOffset": 14154912,
      "componentType": 5126,
      "count": 65532,
      "max": [
        17.647882461547852,
        17.087434768676758,
        30.614536285400391
      ],
      "min": [
        0,
        0.011993408203125,
        0.68439483642578125
      ],
      "type": "VEC3"
    },
    {
      "bufferView": 1,
      "byteOffset": 14941296,
      "componentType": 5126,
      "count": 65532,
      "max": [
        0.99999105930328369,
        0.99995064735412598,
        0.9999580979347229
      ],
      "min": [
        -0.99999374151229858,
        -0.99998289346694946,
        -0.99995094537734985
      ],
      "type": "VEC3"
    },
    {
      "bufferView": 0,
      "byteOffset": 10935084,
      "componentType": 5125,
      "count": 278064,
      "max": [
        65531
      ],
      "min": [
        0
      ],
      "type": "SCALAR"
    },
    {
      "bufferView": 1,
      "byteOffset": 15727680,
      "componentType": 5126,
      "count": 65532,
      "max": [
        17.670452117919922,
        17.102804183959961,
        30.279830932617188
      ],
      "min": [
        0.014759063720703125,
        0.13575267791748047,
        0.14183235168457031
      ],
      "type": "VEC3"
    },
    {
      "bufferView": 1,
      "byteOffset": 16514064,
      "componentType": 5126,
      "count": 65532,
      "max": [
        0.99997186660766602,
        0.99998712539672852,
        0.99999445676803589
      ],
      "min": [
        -0.99999845027923584,
        -0.99998581409454346,
        -0.99988013505935669
      ],
      "type": "VEC3"
    },
    {
      "bufferView": 0,
      "byteOffset": 12047340,
      "componentType": 5125,
      "count": 232122,
      "max": [
        65531
      ],
      "min": [
        0
      ],
      "type": "SCALAR"
    },
    {
      "bufferView": 1,
      "byteOffset": 17300448,
      "componentType": 5126,
      "count": 65534,
      "max": [
        17.666919708251953,
        17.109207153320312,
        31.022817611694336
      ],
      "min": [
        0.014716148376464844,
        0.011147499084472656,
        0.15777778625488281
      ],
      "type": "VEC3"
    },
    {
      "bufferView": 1,
      "byteOffset": 18086856,
      "componentType": 5126,
      "count": 65534,
      "max": [
        0.99996495246887207,
        0.99999195337295532,
        0.99997133016586304
      ],
      "min": [
        -0.99999374151229858,
        -0.99990540742874146,
        -0.99996960163116455
      ],
      "type": "VEC3"
    },
    {
      "bufferView": 0,
      "byteOffset": 12975828,
      "componentType": 5125,
      "count": 153183,
      "max": [
        65533
      ],
      "min": [
        0
      ],
      "type": "SCALAR"
    },
    {
      "bufferView": 1,
      "byteOffset": 18873264,
      "componentType": 5126,
      "count": 59804,
      "max": [
        17.667282104492188,
        17.111772537231445,
        30.88232421875
      ],
      "min": [
        0.014351844787597656,
        0.0031180381774902344,
        0.004070281982421875
      ],
      "type": "VEC3"
    },
    {
      "bufferView": 1,
      "byteOffset": 19590912,
      "componentType": 5126,
      "count": 59804,
      "max": [
        0.99994403123855591,
        0.99987220764160156,
        0.99997514486312866
      ],
      "min": [
        -1,
        -0.99999839067459106,
        -0.99993669986724854
      ],
      "type": "VEC3"
    },
    {
      "bufferView": 0,
      "byteOffset": 13588560,
      "componentType": 5125,
      "count": 85485,
      "max": [
        59803
      ],
      "min": [
        0
      ],
      "type": "SCALAR"
    }
  ],
  "asset": {
    "extras": {
      "author": "iggy-design (https://sketchfab.com/iggy-design)",
      "license": "CC-BY-4.0 (http://creativecommons.org/licenses/by/4.0/)",
      "source": "https://sketchfab.com/models/0671c254c784435b87264c55b6d4a0ec",
      "title": "SeaDeer - underwater creatures"
    },
    "generator": "Sketchfab-3.18.5",
    "version": "2.0"
  },
  "bufferViews": [
    {
      "buffer": 0,
      "byteLength": 13930500,
      "byteOffset": 0,
      "name": "floatBufferViews",
      "target": 34963
    },
    {
      "buffer": 0,
      "byteLength": 20308560,
      "byteOffset": 13930500,
      "byteStride": 12,
      "name": "floatBufferViews",
      "target": 34962
    }
  ],
  "buffers": [
    {
      "byteLength": 34239060,
      "uri": "scene.bin"
    }
  ],
  "materials": [
    {
      "doubleSided": true,
      "name": "material_0",
      "pbrMetallicRoughness": {
        "baseColorFactor": [
          0.47883194350000002,
          0.47883194350000002,
          0.47883194350000002,
          1
        ],
        "metallicFactor": 0.39195884149999999,
        "roughnessFactor": 0.62976371949999999
      }
    }
  ],
  "meshes": [
    {
      "primitives": [
        {
          "attributes": {
            "NORMAL": 1,
            "POSITION": 0
          },
          "indices": 2,
          "material": 0,
          "mode": 4
        }
      ]
    },
    {
      "primitives": [
        {
          "attributes": {
            "NORMAL": 4,
            "POSITION": 3
          },
          "indices": 5,
          "material": 0,
          "mode": 4
        }
      ]
    },
    {
      "primitives": [
        {
          "attributes": {
            "NORMAL": 7,
            "POSITION": 6
          },
          "indices": 8,
          "material": 0,
          "mode": 4
        }
      ]
    },
    {
      "primitives": [
        {
          "attributes": {
            "NORMAL": 10,
            "POSITION": 9
          },
          "indices": 11,
          "material": 0,
          "mode": 4
        }
      ]
    },
    {
      "primitives": [
        {
          "attributes": {
            "NORMAL": 13,
            "POSITION": 12
          },
          "indices": 14,
          "material": 0,
          "mode": 4
        }
      ]
    },
    {
      "primitives": [
        {
          "attributes": {
            "NORMAL": 16,
            "POSITION": 15
          },
          "indices": 17,
          "material": 0,
          "mode": 4
        }
      ]
    },
    {
      "primitives": [
        {
          "attributes": {
            "NORMAL": 19,
            "POSITION": 18
          },
          "indices": 20,
          "material": 0,
          "mode": 4
        }
      ]
    },
    {
      "primitives": [
        {
          "attributes": {
            "NORMAL": 22,
            "POSITION": 21
          },
          "indices": 23,
          "material": 0,
          "mode": 4
        }
      ]
    },
    {
      "primitives": [
        {
          "attributes": {
            "NORMAL": 25,
            "POSITION": 24
          },
          "indices": 26,
          "material": 0,
          "mode": 4
        }
      ]
    },
    {
      "primitives": [
        {
          "attributes": {
            "NORMAL": 28,
            "POSITION": 27
          },
          "indices": 29,
          "material": 0,
          "mode": 4
        }
      ]
    },
    {
      "primitives": [
        {
          "attributes": {
            "NORMAL": 31,
            "POSITION": 30
          },
          "indices": 32,
          "material": 0,
          "mode": 4
        }
      ]
    },
    {
      "primitives": [
        {
          "attributes": {
            "NORMAL": 34,
            "POSITION": 33
          },
          "indices": 35,
          "material": 0,
          "mode": 4
        }
      ]
    },
    {
      "primitives": [
        {
          "attributes": {
            "NORMAL": 37,
            "POSITION": 36
          },
          "indices": 38,
          "material": 0,
          "mode": 4
        }
      ]
    }
  ],
  "nodes": [
    {
      "children": [
        1
      ],
      "name": "RootNode (gltf orientation matrix)",
      "rotation": [
        -0.70710678118654746,
        -0,
        -0,
        0.70710678118654757
      ]
    },
    {
      "children": [
        2
      ],
      "name": "RootNode (model correction matrix)"
    },
    {
      "children": [
        3
      ],
      "matrix": [
        1,
        0,
        0,
        0,
        0,
        1,
        0,
        0,
        0,
        0,
        1,
        0,
        -8.8408174514770508,
        -4.6281943321228027,
        -24.221450805664062,
        1
      ],
      "name": "Sea Deer OBJ.OBJ.cleaner.materialmerger.gles"
    },
    {
      "children": [
        4,
        5,
        6,
        7,
        8,
        9,
        10,
        11,
        12,
        13,
        14,
        15,
        16
      ],
      "name": ""
    },
    {
      "mesh": 0,
      "name": ""
    },
    {
      "mesh": 1,
      "name": ""
    },
    {
      "mesh": 2,
      "name": ""
    },
    {
      "mesh": 3,
      "name": ""
    },
    {
      "mesh": 4,
      "name": ""
    },
    {
      "mesh": 5,
      "name": ""
    },
    {
      "mesh": 6,
      "name": ""
    },
    {
      "mesh": 7,
      "name": ""
    },
    {
      "mesh": 8,
      "name": ""
    },
    {
      "mesh": 9,
      "name": ""
    },
    {
      "mesh": 10,
      "name": ""
    },
    {
      "mesh": 11,
      "name": ""
    },
    {
      "mesh": 12,
      "name": ""
    }
  ],
  "scene": 0,
  "scenes": [
    {
      "name": "OSG_Scene",
      "nodes": [
        0
      ]
    }
  ]
}

